HIERARCHY
ROOT Hips
{
	OFFSET -14.64140 90.27770 -84.91600
	CHANNELS 6 Xposition Yposition Zposition Zrotation Xrotation Yrotation
	JOINT Spine
	{
		OFFSET 0.00000 13.20850 -1.60436
		CHANNELS 3 Zrotation Xrotation Yrotation
		JOINT Spine1
		{
			OFFSET 0.00000 8.61716 0.00000
			CHANNELS 3 Zrotation Xrotation Yrotation
			JOINT Spine2
			{
				OFFSET 0.00000 8.61717 0.00000
				CHANNELS 3 Zrotation Xrotation Yrotation
				JOINT Spine3
				{
					OFFSET 0.00000 8.61717 0.00000
					CHANNELS 3 Zrotation Xrotation Yrotation
					JOINT Neck
					{
						OFFSET 0.00000 11.07920 1.10792
						CHANNELS 3 Zrotation Xrotation Yrotation
						JOINT Neck1
						{
							OFFSET 0.00000 7.08032 0.00000
							CHANNELS 3 Zrotation Xrotation Yrotation
							JOINT Head
							{
								OFFSET 0.00000 7.08031 0.00000
								CHANNELS 3 Zrotation Xrotation Yrotation
								End site
								{
									OFFSET 0.00000 0.00000 0.00000
								}
							}
						}
					}
					JOINT RightShoulder
					{
						OFFSET -0.01000 7.91373 5.19711
						CHANNELS 3 Zrotation Xrotation Yrotation
						JOINT RightArm
						{
							OFFSET -18.41580 0.00000 0.00000
							CHANNELS 3 Zrotation Xrotation Yrotation
							JOINT RightForeArm
							{
								OFFSET -29.11090 0.00000 0.00000
								CHANNELS 3 Zrotation Xrotation Yrotation
								JOINT RightHand
								{
									OFFSET -24.65040 0.00000 0.00000
									CHANNELS 3 Zrotation Xrotation Yrotation
									JOINT RightHandThumb1
									{
										OFFSET -5.35114 -0.85590 3.97906
										CHANNELS 3 Zrotation Xrotation Yrotation
										JOINT RightHandThumb2
										{
											OFFSET -4.52789 0.00000 0.00000
											CHANNELS 3 Zrotation Xrotation Yrotation
											JOINT RightHandThumb3
											{
												OFFSET -2.46976 0.00000 0.00000
												CHANNELS 3 Zrotation Xrotation Yrotation
												End site
												{
													OFFSET 0.00000 0.00000 0.00000
												}
											}
										}
									}
									JOINT RightHandIndex1
									{
										OFFSET -14.26970 0.00000 2.88139
										CHANNELS 3 Zrotation Xrotation Yrotation
										JOINT RightHandIndex2
										{
											OFFSET -5.48836 0.00000 0.00000
											CHANNELS 3 Zrotation Xrotation Yrotation
											JOINT RightHandIndex3
											{
												OFFSET -3.01859 0.00000 0.00000
												CHANNELS 3 Zrotation Xrotation Yrotation
												End site
												{
													OFFSET 0.00000 0.00000 0.00000
												}
											}
										}
									}
									JOINT RightHandMiddle1
									{
										OFFSET -14.26970 0.00000 -0.09147
										CHANNELS 3 Zrotation Xrotation Yrotation
										JOINT RightHandMiddle2
										{
											OFFSET -6.17441 0.00000 0.00000
											CHANNELS 3 Zrotation Xrotation Yrotation
											JOINT RightHandMiddle3
											{
												OFFSET -3.56743 0.00000 0.00000
												CHANNELS 3 Zrotation Xrotation Yrotation
												End site
												{
													OFFSET 0.00000 0.00000 0.00000
												}
											}
										}
									}
									JOINT RightHandRing1
									{
										OFFSET -12.69180 0.00000 -3.06433
										CHANNELS 3 Zrotation Xrotation Yrotation
										JOINT RightHandRing2
										{
											OFFSET -5.62556 0.00000 0.00000
											CHANNELS 3 Zrotation Xrotation Yrotation
											JOINT RightHandRing3
											{
												OFFSET -3.56744 0.00000 0.00000
												CHANNELS 3 Zrotation Xrotation Yrotation
												End site
												{
													OFFSET 0.00000 0.00000 0.00000
												}
											}
										}
									}
									JOINT RightHandPinky1
									{
										OFFSET -11.11390 0.00000 -6.03719
										CHANNELS 3 Zrotation Xrotation Yrotation
										JOINT RightHandPinky2
										{
											OFFSET -4.52789 0.00000 0.00000
											CHANNELS 3 Zrotation Xrotation Yrotation
											JOINT RightHandPinky3
											{
												OFFSET -2.46976 0.00000 0.00000
												CHANNELS 3 Zrotation Xrotation Yrotation
												End site
												{
													OFFSET 0.00000 0.00000 0.00000
												}
											}
										}
									}
								}
							}
						}
					}
					JOINT LeftShoulder
					{
						OFFSET 0.01000 7.91373 5.19711
						CHANNELS 3 Zrotation Xrotation Yrotation
						JOINT LeftArm
						{
							OFFSET 18.41580 0.00000 0.00000
							CHANNELS 3 Zrotation Xrotation Yrotation
							JOINT LeftForeArm
							{
								OFFSET 29.11090 0.00000 0.00000
								CHANNELS 3 Zrotation Xrotation Yrotation
								JOINT LeftHand
								{
									OFFSET 24.65040 0.00000 0.00000
									CHANNELS 3 Zrotation Xrotation Yrotation
									JOINT LeftHandThumb1
									{
										OFFSET 5.35114 -0.85590 3.97906
										CHANNELS 3 Zrotation Xrotation Yrotation
										JOINT LeftHandThumb2
										{
											OFFSET 4.52789 0.00000 0.00000
											CHANNELS 3 Zrotation Xrotation Yrotation
											JOINT LeftHandThumb3
											{
												OFFSET 2.46977 0.00000 0.00000
												CHANNELS 3 Zrotation Xrotation Yrotation
												End site
												{
													OFFSET 0.00000 0.00000 0.00000
												}
											}
										}
									}
									JOINT LeftHandIndex1
									{
										OFFSET 14.26970 0.00000 2.88139
										CHANNELS 3 Zrotation Xrotation Yrotation
										JOINT LeftHandIndex2
										{
											OFFSET 5.48836 0.00000 0.00000
											CHANNELS 3 Zrotation Xrotation Yrotation
											JOINT LeftHandIndex3
											{
												OFFSET 3.01859 0.00000 0.00000
												CHANNELS 3 Zrotation Xrotation Yrotation
												End site
												{
													OFFSET 0.00000 0.00000 0.00000
												}
											}
										}
									}
									JOINT LeftHandMiddle1
									{
										OFFSET 14.26970 0.00000 -0.09147
										CHANNELS 3 Zrotation Xrotation Yrotation
										JOINT LeftHandMiddle2
										{
											OFFSET 6.17440 0.00000 0.00000
											CHANNELS 3 Zrotation Xrotation Yrotation
											JOINT LeftHandMiddle3
											{
												OFFSET 3.56744 0.00000 0.00000
												CHANNELS 3 Zrotation Xrotation Yrotation
												End site
												{
													OFFSET 0.00000 0.00000 0.00000
												}
											}
										}
									}
									JOINT LeftHandRing1
									{
										OFFSET 12.69180 0.00000 -3.06433
										CHANNELS 3 Zrotation Xrotation Yrotation
										JOINT LeftHandRing2
										{
											OFFSET 5.62556 0.00000 0.00000
											CHANNELS 3 Zrotation Xrotation Yrotation
											JOINT LeftHandRing3
											{
												OFFSET 3.56744 0.00000 0.00000
												CHANNELS 3 Zrotation Xrotation Yrotation
												End site
												{
													OFFSET 0.00000 0.00000 0.00000
												}
											}
										}
									}
									JOINT LeftHandPinky1
									{
										OFFSET 11.11390 0.00000 -6.03719
										CHANNELS 3 Zrotation Xrotation Yrotation
										JOINT LeftHandPinky2
										{
											OFFSET 4.52789 0.00000 0.00000
											CHANNELS 3 Zrotation Xrotation Yrotation
											JOINT LeftHandPinky3
											{
												OFFSET 2.46976 0.00000 0.00000
												CHANNELS 3 Zrotation Xrotation Yrotation
												End site
												{
													OFFSET 0.00000 0.00000 0.00000
												}
											}
										}
									}
								}
							}
						}
					}
					JOINT pCube4
					{
						OFFSET 0.00000 10.91090 1.10792
						CHANNELS 3 Zrotation Xrotation Yrotation
						End site
						{
							OFFSET 0.00000 0.00000 0.00000
						}
					}
				}
			}
		}
	}
	JOINT RightUpLeg
	{
		OFFSET -9.98441 0.00000 0.00000
		CHANNELS 3 Zrotation Xrotation Yrotation
		JOINT RightLeg
		{
			OFFSET 0.00000 -42.11790 0.00000
			CHANNELS 3 Zrotation Xrotation Yrotation
			JOINT RightFoot
			{
				OFFSET 0.00000 -45.00020 -0.00001
				CHANNELS 3 Zrotation Xrotation Yrotation
				JOINT RightForeFoot
				{
					OFFSET 0.00000 -3.74820 0.00000
					CHANNELS 3 Zrotation Xrotation Yrotation
					JOINT RightToeBase
					{
						OFFSET 0.00000 0.06325 14.43120
						CHANNELS 3 Zrotation Xrotation Yrotation
						End site
						{
							OFFSET 0.00000 0.00000 0.00000
						}
					}
				}
			}
		}
	}
	JOINT LeftUpLeg
	{
		OFFSET 9.98441 0.00000 0.00000
		CHANNELS 3 Zrotation Xrotation Yrotation
		JOINT LeftLeg
		{
			OFFSET 0.00000 -42.11800 0.00000
			CHANNELS 3 Zrotation Xrotation Yrotation
			JOINT LeftFoot
			{
				OFFSET 0.00000 -45.00070 0.00000
				CHANNELS 3 Zrotation Xrotation Yrotation
				JOINT LeftForeFoot
				{
					OFFSET 0.00000 -3.74824 0.00000
					CHANNELS 3 Zrotation Xrotation Yrotation
					JOINT LeftToeBase
					{
						OFFSET 0.00000 0.06325 14.43110
						CHANNELS 3 Zrotation Xrotation Yrotation
						End site
						{
							OFFSET 0.00000 0.00000 0.00000
						}
					}
				}
			}
		}
	}
}
MOTION
Frames: 4
Frame Time: 0.050000
-0.018800423273377567 0.01600730088368724 0.03067651110528623 -0.005280200314470271 0.016410402077381727 -0.003933449128763889 3.461914271244802 4.538477196939384 -1.839807753834205 -0.8410143015193393 3.5306605655185974 0.3612884106223377 -0.6281805589996956 -1.1762592987935647 -0.37464441580554836 -0.4063164378007341 -0.420017295598 -0.5431525986247364 -0.3769142663163829 12.551261491150719 -1.1014059869957644 0.30093952208918795 -0.36734110357107813 -2.510426485519611 0.6643337322346073 -16.526484476284722 -0.22906259585207733 -9.189763794901625 3.3523183847262463 -16.761186012359914 72.97866412997568 -6.566573211251762 1.6515715994283537 1.3304070220191064 0.5146312880203008 67.06393788143133 16.180544001581296 -0.34268877278591287 -1.940909366021693 4.489403965075794 -0.07747753638948096 -1.5654143432519043 -0.04727102459018371 0.048092362157007504 -56.21711800931584 -0.043883164470696616 0.02376146948682062 -56.255315952764946 -38.75556045677012 0.001476916421107694 0.013575973009738989 -0.009172331999315384 -0.021768780886601058 0.03595479077358543 0.010351480296254241 -0.021811394987123457 -0.0223280159798838 -36.66615751379028 0.040273364812854984 0.02806300801526452 0.01711334848061001 -0.011598967581502589 0.006778712342303145 0.032279676795105454 -0.033197454532674205 -0.02550325653219396 -19.72237750587861 -0.008540120935330053 0.046433465789875034 -0.023112428903449715 -0.003947997418539758 0.01665169356068329 -0.0010498182787484632 -0.04725417326053719 0.041253037490176246 24.049931072022265 0.0005073902226982503 -0.0059372600797170895 28.88601567948519 0.02429224772869873 0.02810872942503937 28.835533715922264 -0.0069024320918227525 -0.04734121966362549 11.5759842882233 2.778772341212642 14.68877738387919 -62.909149672267915 2.085259824618579 -23.415146658414468 -13.009433978239604 -4.291766638560247 -85.48773767290102 -12.170664695805495 -3.132884842342586 -0.9886254531614262 -0.4849469749685196 0.05586919616197395 -8.124815100914237 -0.04275025389019958 0.019006426567241046 44.61258984454456 0.002046915341901541 0.02967588348867269 44.58267697576294 12.466245482101412 -0.03029963084180988 0.03686844164427795 -0.049232692137404936 -0.04827147362484733 -0.03258880381072494 0.035350722437953425 -0.0011331185714657916 -0.0459154259253317 11.061270461624009 -0.0015301368770261827 0.02627140774024751 0.03409664692416806 -0.005245812612024003 -0.04806555957087462 0.011065253355583957 0.012735626911974725 -0.034803009962946774 4.814448503290451 -0.03944754415246515 -0.010461822581474624 -0.022898373692392646 -0.041354357989952406 -0.0028516713525520688 6.072685574828175e-05 0.006491528168505874 0.01686011208329807 -5.614782859019372 0.004282825744850138 0.004441995426760502 -6.725511084645739 0.02169370048113783 0.009292570168625352 -6.761091863809402 -0.0032578868385963167 -0.01545322558607029 0.023749610256308503 -0.023862023439905133 0.0073552338598393795 8.01669449118911 3.520029606121822 -19.26009068119947 -0.017665033797135098 10.362773908530095 0.004054901433777847 -5.600066304041952 -15.618219464164676 3.187768977558765 0.01894305319101123 -0.03914071469606854 -0.007073875574712202 0.010813458334803535 4.707160159559348 0.04134227038589235 12.449032213285676 -8.272557382710882 6.901988442378749 0.03924971520550624 46.360198419685226 0.013012739739669977 -4.299153953495595 -14.720054357372112 -3.808107891294658 -0.015150592170142346 -0.006619593372095805 -0.013085071359100371 -0.005811076282991192 -10.72839087335371 -0.031030015012927084 
-0.021543628738054283 0.03385304987650434 0.041887334275725524 0.013792491051213301 -0.0015757343751739543 0.04250565527518775 3.56280660173985 4.469679781766479 -1.8782113589628058 -0.8266870361562181 3.5359015335492776 0.36921294729571824 -0.65669254321168 -1.1283795498819365 -0.5062309482772371 -0.4458388044851308 -0.38434793845738124 -0.5375675550640147 -0.4835782081369596 12.573765698026474 -0.9902128178699238 0.2911935797406092 -0.37065723775356835 -2.074893131072947 0.6368235581373644 -16.63142791832345 -0.22401181557906713 -9.358680376757613 3.3216580358122654 -16.935939683909233 73.31321488711643 -6.629595525614744 1.1182536563605283 1.3753576216063863 -0.22625966723533042 67.61012492886006 16.1055001906388 -0.3977570989304847 -1.905920400922407 4.540309373171359 -0.10705434962538907 -1.5967198499365827 -0.014549209678070803 -0.01354747759330136 -56.220208064221836 0.04589317036641181 0.0428790557058542 -56.253356341591314 -38.75379512216142 0.006123981294689086 0.002725981084461836 -0.014301056469809113 0.027101845153541537 0.026936098307378257 0.007132704785819861 -0.016697594104805223 -0.04131183839133467 -36.7387078261085 0.0027867284533867973 0.04772846041059883 -0.017712426541615207 -0.03789069072739895 0.03734368075838103 0.04591694892442706 0.036123942689441475 0.046130116135126555 -19.713223707287682 -0.036041939463019874 0.03896972410989271 -0.033169974653955214 -0.012362397653351008 -0.043020242016208764 0.03724232216412049 0.026916984012557047 0.005607149211261018 24.085993923526303 -0.0035177433023219724 0.009657570743949455 28.890194244115037 -0.033080646433146385 -0.005534523622736666 28.858889934342226 -0.019852632810317707 0.04288134606811885 11.945346775078855 2.8333857165636163 14.781660192168056 -62.48023456225992 1.5848515004974972 -24.15088536118602 -12.664545358987667 -5.076628117519966 -86.31963048724957 -11.963430640181986 -3.419995090344984 -0.9318683041293936 -0.4860338980037866 0.07941490842090626 -8.169422438299824 -0.03645606462461924 0.010091780387575576 44.53016067258749 -0.045892660101427875 0.02144973896502148 44.61235740348739 12.465241576392115 0.039599175689402404 -0.00468206654703684 0.008902292592454139 -0.028830455750515023 0.026128208256569696 0.030413161375632405 -0.0003681613944957585 -0.02639395999347723 11.058015183231559 -0.04534181981484594 0.017141119980453805 -0.010631268519514821 0.00043321882815687703 0.04330690494606312 0.039412020872455794 -0.01837926858394905 -0.04170884916616466 4.7320102296236985 -0.04089043178504641 0.027891964271006587 -0.010951632511623594 -0.03140192607120745 0.007168917006282814 -0.014088609824561503 -0.016116703991113923 -0.004012391133594335 -5.586852422375939 0.0023877559360911925 -0.016799389115685775 -6.721754004923507 0.025591769652150043 -0.0033504088892360767 -6.677423662512273 -0.014685454794441562 0.002749199061151141 -0.04689704418009838 0.00957477490799931 -0.017409800182684877 8.029748718700015 3.508812684493319 -19.218805161104505 0.026714883079936726 10.371240218621944 -0.01972644414742789 -5.59471378780502 -15.672118971238014 3.1803562948334845 -0.0061406063510695144 -0.024231587656771282 -0.01461512307280356 -0.009635099101563481 4.738042919127186 0.02430274044008644 12.443937044475739 -8.223578425177541 6.910681417938711 0.013649922938699016 46.42742456335572 0.005513591464675753 -4.304252810307857 -14.739203629366708 -3.8106759676100603 -0.014142490968240214 -0.017630461893897338 -0.028190351080779476 -0.04139243968040253 -10.701166204844863 0.04405015386940095 
-0.012906495619451256 -0.013793318638793137 0.02566231032057863 0.041141811928706515 -0.03855824405178351 0.019275794050558827 3.571390742669172 4.393781613499315 -1.8548065318895528 -0.7742445138219669 3.522850139323887 0.40943576888307887 -0.616750668484474 -1.1572416115560706 -0.6768172101848768 -0.4180438778096425 -0.4567264868575683 -0.5432757685322256 -0.5223195769948368 12.666633299463646 -0.8714530445890195 0.30260185477774076 -0.39651433840080696 -1.7771531553699178 0.6893994362965183 -16.683450221150217 -0.18141922223433135 -9.40762677401378 3.392389130580287 -17.015229719594327 73.63649441876818 -6.480941272539834 0.1052846603128344 1.02918185705956 -1.0145512774313403 68.05310647046069 16.459150353635298 -0.349528580687285 -2.016791274011303 4.539940480082216 -0.1452286660210577 -1.6230280561780002 0.002424026497210422 -0.008618528519978257 -56.23679406428542 -0.04429740927040736 -0.014284186917160999 -56.28087069595451 -38.76628931291034 -0.030040499443159573 -0.03870382184597809 0.0004301374629879118 0.013059866456025705 0.013629270532471097 0.023286443978685845 -0.01061315248468145 -0.026114626421667876 -36.69112651472238 0.0440927026968146 -0.025004275531657606 0.04286932692893365 -0.009074872353854317 -0.03135333809698101 0.03708716390021279 0.0022042716706961517 -0.021108818090002025 -19.73898784451614 -0.04112242921695815 0.030564041486750314 0.027221990458242865 0.03829840843614157 0.01881492259827963 -0.03374273463302167 0.020025313961168825 -0.01897425510670163 24.085897403688854 0.04621420016376725 -0.015939729022171726 28.87952673498415 -0.014240892747599865 0.001889820859754338 28.851770806502167 -0.008243044864750802 -0.04869835808415931 12.200872115930729 2.8601305805454453 14.862884774894043 -62.04520346952458 1.2163440611342127 -24.75717294858329 -12.864709252163706 -5.722440559587233 -87.31076394810322 -12.034042904009551 -3.564368181857471 -0.8979536775305265 -0.44398775323532785 0.06070029953791565 -8.168359744675529 -0.012682265792993743 -0.0425923270435578 44.523017783702315 0.03403822248915258 -0.035543097646829 44.61263597811097 12.473645808259453 0.005891233547535772 0.032825845807370226 0.014523064029997916 -0.01407447441604414 0.038125302158180066 0.011967864832876051 -0.04942338633469053 -0.006816816306373599 11.124954319726141 0.04188691406532071 -0.04215637092518998 0.02145861130399287 0.038112911984115046 0.0012574473085100032 -0.011799111338416863 0.010488991130773647 -0.019657114254127007 4.7501708694637115 -0.014575493438795705 -0.04900354425480495 -0.005843647885009877 -0.04741550515173433 -0.03926170621326146 0.042360778452172565 0.015140095969506813 -0.0182610471233076 -5.592292507045554 0.046981187607678936 -0.016934642863959792 -6.7624051666346165 -0.004954240870822022 0.026860268742419133 -6.7123258918602735 -0.02564844222752475 0.04177542465800168 -0.04914651067193137 0.03918593586801069 0.020693875829381935 8.079862483128315 3.5323094594059263 -19.18077974354622 0.030379884006172413 10.432815613966627 0.03525210842186155 -5.6377022165316335 -15.621284583223677 3.2392475780650716 0.03425084319962129 0.03217410348776472 0.006361465400341315 -0.03984526533792692 4.7440375728578115 -0.03586749679396374 12.467658028272352 -8.260237647255444 6.855340470037974 0.00812221143242742 46.37329017033716 0.03064353655481663 -4.375082705454259 -14.772210278212388 -3.8434334064572777 0.022537188705313852 -0.008836830933185904 -0.0342986498168526 -0.041153187013484374 -10.718294534142553 -0.034910524423005115 
-0.028776883628035085 0.01882379691294558 0.0006923299522529014 -0.03384271756403634 0.012751244771925711 0.00610838621442906 3.377985981642038 4.597075772457566 -1.829791626249567 -0.8185188876182716 3.4495913901157156 0.34503858391698666 -0.6980882066652615 -1.2099622281131637 -0.840654919040399 -0.46791218814078606 -0.4191414561532789 -0.5891381496032299 -0.538400474223922 12.433139544060564 -0.8985905766837888 0.3187728738972971 -0.4908609852749509 -1.8405543627684613 0.6715818587192345 -16.76143134855825 -0.16233784395958656 -9.082028167589332 3.29544744600194 -16.95282015658309 73.58301575516441 -6.793086235288922 -0.9124143863546456 0.4672886929424078 -1.3043795524308983 68.2135574673782 17.3692486651048 -0.3900139488357452 -2.178541218279832 4.48071924016184 -0.09666421667817789 -1.602637434978161 0.023607510436067868 0.0317823278235282 -56.23311075363053 -0.028326644466106395 -0.001712017300819779 -56.19148868745657 -38.77039631973427 -0.046595618748289734 0.03258002040369621 0.02128104458317755 0.02753551548903496 0.017544655333638713 0.021806097822490763 -0.01572494901877075 0.014043694510432898 -36.738453174078366 0.009772040669758288 0.047285649215761796 -0.038490168763935795 -0.038443890936440246 -0.030315194381151152 0.02660180575482546 0.03301429027746077 0.00763677630227747 -19.713647248186863 0.004854724516667772 0.01997865359984934 -0.03794295331127394 0.047384506038097185 0.03587128043238078 -0.0008156317678531171 0.0066799024183995795 -0.024788914204310654 24.045050326590854 0.0020547758343210094 -0.008146928265327 28.88241617000794 0.04127535645004438 -0.020367222219171015 28.877212567737374 0.04189055893481251 -0.034390079402451534 11.935773710079332 2.8363970559053557 14.674843827102801 -61.32395806982732 1.0435968126195396 -24.995366970160337 -13.337186361753101 -6.151939147319913 -88.70616521406936 -12.36478023579845 -3.6681205964195818 -1.000799142462013 -0.48550465821782396 0.07015726036560835 -8.140200760794748 0.008308212949043298 0.028302113778751085 44.57664321900774 0.008828666881566737 0.019096492981099666 44.55144777039628 12.447398202760779 -0.021976112289564975 0.011833259300639542 0.026249873726848377 0.005586133882074905 0.030774587668227025 -0.022228449725696754 0.011101890309121792 0.031491442945241116 11.110859873405442 0.0154891404532306 0.01757081720785318 -0.027749326736387105 0.048955055466389244 0.03805169761359694 -0.0419382594997775 0.0327108345456492 0.03277795001463215 4.781576814296548 0.025102668383497832 0.045295454244460256 -0.008257500627948711 0.03822278798119286 0.008799403603255198 -0.025394105242483374 -0.0024343435457966707 -0.03455094886890903 -5.58061609092987 -0.03137330672012106 0.02440654771937725 -6.710429418977818 0.01727249458072222 -0.009713812260003538 -6.759899014456748 -0.03596256374268336 -0.004017227417929048 0.009543430202870164 -0.04236457578947792 0.009906497184425525 8.067348302075887 3.462208848340698 -19.208627764739013 -0.04345629988798544 10.365306183227196 0.04286394302360999 -5.587380983307936 -15.639382863829441 3.21964723102795 0.009168271775298303 0.04498515455202867 0.029746136190474178 -0.015836378390738235 4.731221279362801 0.009718712504514776 12.499242038561913 -8.244194290140834 6.834361596877342 -0.005063803107455906 46.42774986992879 -0.04227432555333897 -4.356361286919683 -14.744672161231076 -3.8833805659333174 -0.04522687420745527 -0.027443877395709432 -0.0017629527712501357 -0.028495649177138715 -10.77607764676717 -0.04336985734005946 
